<svg width="400" height="400" viewBox="0 0 400 400" fill="none" xmlns="http://www.w3.org/2000/svg">
<path d="M262.35 0.03999C262.49 2.22944 260.1 4.36891 259.8 5.97851C259.58 7.17821 261.13 7.86803 260.9 9.04774C260.4 11.6671 258.25 17.7156 257.35 20.4949L259.4 21.5246C257.5 33.0617 263.1 42.7393 262.35 54.2864L264.34 55.3262C261.28 58.7753 264.63 62.3244 264.27 66.2734C264.12 67.953 262.84 69.1327 262.7 70.4924C262.19 75.3512 263.03 81.4996 259.36 85.2987C263.27 86.3384 260.17 87.968 259.91 90.6273C259.52 94.6563 261.07 99.7051 258.36 103.274C262.64 104.294 258.52 106.953 257.84 109.703C257.16 112.452 258.54 116.461 255.36 119.21L257.37 120.15C252.7 128.878 251.39 138.805 245.39 147.133L247.39 148.103L238.18 164.859C236.66 171.747 235.84 178.035 235.11 184.894C234.58 189.933 232.23 201.52 235.45 205.019C235.02 217.776 237.86 230.232 232.42 242.899L234.43 243.819L232.36 248.798L234.44 249.828C230.86 254.676 233.65 262.274 232.06 267.643C230.6 272.592 226.58 277.481 224.93 282.249C224.25 284.209 225.25 289.278 222.46 291.777L224.46 292.707C223.43 294.026 222.46 295.836 222.11 297.456C221.2 301.625 220.23 308.923 218.71 312.822C215.31 321.54 208.44 330.008 204.5 338.615L206.51 339.575C204.48 343.384 201.9 347.433 200.28 351.412C199.51 353.282 200.26 355.091 199.31 357.241C197.85 360.56 191.45 369.708 190.98 371.957C190.73 373.137 192.32 373.837 192.1 375.036C191.56 377.956 189.05 383.924 188.51 387.453L190.56 388.413L188.56 398.93H148.66C147.18 396.051 148.42 393.592 148.23 390.902C148.13 389.443 146.97 387.743 146.92 386.263C146.84 383.854 149.88 382.794 147.16 380.995C143.42 383.784 146.63 388.183 143.66 391.482L145.67 392.402L143.6 397.371L145.67 398.92H106.77L107.83 394.491L105.77 393.452C109.87 385.684 108.58 377.786 110.68 369.498C113.92 356.781 121.47 345.024 125.81 332.587C127.2 328.608 128.05 321.05 129.17 317.101C132.21 306.393 137.74 294.366 138.9 283.939C139.67 277.081 143.07 266.753 143.59 259.835C143.78 257.346 140.97 252.357 140.94 249.628C140.81 238.55 144.38 228.143 144.26 217.926C144.2 212.777 143.82 210.447 143.23 206.438C141.64 195.661 141.9 187.553 145.73 177.026L143.67 176.046L148.9 166.258C156.03 141.095 167.72 117.661 173.18 92.7268C175.78 80.8198 177.47 66.9933 179.38 55.3762C180.24 50.1575 177.52 40.4099 176.49 34.5614C175.97 31.5921 175.16 29.8425 175.04 24.7938C174.95 20.8748 172.45 17.6856 176.61 13.4466L174.61 12.5169L177.52 5.5986C176.6 1.6096 165.78 6.08848 169.62 0H262.39L262.35 0.03999ZM216.46 20.9848C215.09 19.2252 211.33 26.2534 211.42 27.4431C214.76 28.2929 212.25 29.2327 212.71 31.1722C214.15 37.1507 217.85 50.2674 218.28 55.6361C218.54 58.8153 216.39 64.194 215.9 66.8333C215.54 68.7828 216.87 70.7523 215.46 72.8318L217.95 72.8518C218.89 72.5619 220.1 61.9645 218.93 60.8448C221.85 55.7561 219.01 50.0375 221.5 45.4286C218.47 42.0095 219.65 30.9323 218.23 25.4636C218.15 25.1437 215.07 24.094 216.45 20.9848H216.46ZM203.45 64.9738C200.69 61.2847 196.88 67.4131 195.72 69.6626C194.56 71.912 196.31 74.5814 192.55 74.8913L192.98 76.8708L198.5 81.3097L193.23 85.1187L194.52 88.7978C191.51 86.8083 187.52 93.5366 186.96 95.7461C186.56 97.3457 187.71 98.6553 187.05 100.695C186.15 103.474 181.02 108.543 180.77 111.432L183.46 122.079L189.04 126.698C190.97 127.138 190.29 126.148 190.79 125.449C193.45 121.76 197.88 114.221 199.25 109.993C202.82 98.9553 199.45 85.8985 201.93 74.8213C202.88 70.5824 204.55 73.3917 203.03 67.3132C202.86 66.6333 203.66 65.2637 203.44 64.9838L203.45 64.9738ZM192.53 162.589C194.34 161.12 197.2 156.551 197.97 154.541C203.27 140.765 209.31 126.188 213.16 112.082L212.97 103.764C208.85 106.743 210.82 110.642 210.06 113.712C209.38 116.471 205.66 120.31 204.48 123.209L206.49 124.169C205.23 128.468 197.53 138.245 196.96 141.605C196.76 142.804 198.25 143.484 198.05 144.684C197.67 146.923 194.41 149.693 193.93 151.582C193.5 153.262 194.65 154.691 194.48 156.061C194.23 158.01 191.66 159.89 192.53 162.589ZM188.53 195.511C182.21 196.981 185 203.989 183.64 208.328L187.05 210.437C190.15 210.447 188.8 197.961 188.54 195.521L188.53 195.511ZM172.76 205.299C172.45 204.969 175.56 196.961 170.09 198.5C165.71 199.73 172.33 205.109 171.59 207.468L174.57 205.969L172.76 205.299ZM173.55 229.413C177.14 224.504 176.99 216.516 171.22 213.537C165.39 217.246 161.48 219.775 163.6 227.423C167.37 225.874 170.23 227.703 173.55 229.413ZM165.38 233.162L158.89 230.592L156.61 232.392C162.59 233.222 158.67 237.121 160.5 239.93C164.24 245.689 169.43 242.649 171.55 237.421L169.51 236.851L170.58 233.432L166.06 231.402L165.38 233.162ZM186.76 244.129C186.23 243.369 188.21 241.44 186.03 240.38C179.44 242.859 184.88 250.087 183.55 254.326C190.04 255.386 184.64 247.928 188.55 244.839C188.72 244.239 187.01 244.469 186.77 244.119L186.76 244.129ZM167.22 256.416L163.1 260.105L160.67 258.745L158.62 259.815C160.89 260.835 159.57 263.824 160.53 264.804C163.88 268.233 171.11 263.854 170.43 259.035L167.21 256.406L167.22 256.416ZM180.8 286.069C182.55 282.919 181.37 279.81 181.96 277.291C182.83 273.542 190.31 266.803 184.05 263.324C178.62 268.603 181.29 274.891 177.49 280.76L179.55 281.75C175.43 285.859 178.31 290.267 175.5 294.726L177.55 295.706L169.56 309.703L171.56 310.672C169.73 314.951 164.89 320.66 163.81 324.919C160.88 336.526 158.7 345.134 153.8 356.761C152.99 358.69 146.89 369.268 147.61 370.027C149.67 370.467 149.88 368.978 150.82 367.768C154.09 363.569 156.18 357.761 159.59 353.532C166.11 352.352 162.74 355.271 165.11 358.03L169.91 355.831L170.45 349.183L168.04 348.083L165.57 350.102C166.96 346.993 163.81 345.904 163.77 345.634C163.11 341.285 165.5 338.945 166.12 336.166C166.48 334.536 165.5 333.097 165.97 331.167C169.13 318.28 177.95 308.603 180.2 295.626C180.64 293.077 179 289.698 182.52 286.758L180.77 286.088L180.8 286.069ZM165.31 288.528C164.85 287.838 162.72 287.378 162.09 286.298C159.6 290.677 157.33 292.277 153.77 294.916L158.12 306.193C159.24 306.763 161.85 302.474 162.42 301.535C164.35 298.355 167.64 292.007 165.31 288.528Z" fill="#E8FF6E"/>
<path d="M393.02 0.0400268L392.03 11.0073C395.86 8.79784 396.79 3.61913 399 0.0400268H400V36.9408L395 45.4387L397.07 46.4284C397.19 48.6179 393.7 51.7371 393.21 53.6766C391.59 60.055 389.73 67.0933 387.27 73.4917C386.04 76.6909 383.69 80.27 382.03 83.3392L383.97 85.2187C382.11 88.6079 379.02 92.4869 377.78 96.106C375.11 103.884 372.39 113.422 368.99 121.04C366.49 126.638 363.23 131.947 360.09 137.196L362.03 139.075C359.93 142.724 356.97 146.723 355.54 150.662C353.31 156.851 351.21 164.299 349.71 170.577C349.05 173.337 345.6 176.916 345.12 180.045C346.24 181.715 347.29 179.815 347.96 178.895C353.35 171.567 352.69 162.219 358.66 154.591C359.22 144.464 367.64 135.306 372.07 126.178L370.06 125.219C372.1 121.41 374.67 117.361 376.29 113.382C379 106.773 380.85 99.5351 382.45 92.7968C383.18 89.7176 387.35 84.3489 389.02 81.3097L387.02 80.34C389.09 76.3809 391.95 71.972 393.54 67.8631C395.03 64.014 396.83 55.4962 397.7 51.1073C398 49.5876 398.68 47.8481 400 46.9183V152.632C397.3 155.131 394.77 160.21 393.49 163.589C384.92 186.203 383.49 211.237 378.68 234.731C378.27 236.751 376.97 239.04 376.05 240.93L378.05 241.86L374 254.836L376.06 255.816C372.25 260.345 374.73 266.104 371.06 270.842L373.06 271.772L370.05 276.801L372.11 277.791L369.06 284.799L371.06 285.729C370.05 287.238 368.63 289.198 368.28 290.967C363.77 313.622 362.36 336.596 359.55 359.02C358.56 366.878 358.82 375.406 355.09 382.524L357.09 383.454C352.87 388.303 354.21 393.372 352.1 398.93H306.21C307.94 392.422 308.93 386.173 313.2 380.455C308.12 379.385 314.74 374.636 314.81 372.487C314.83 371.937 313.55 371.167 313.65 369.948C313.84 367.498 317.42 364.859 314.69 363.049C313.57 364.249 311.97 366.478 311.65 367.998C310.85 371.797 310.04 379.355 308.73 382.984C306.75 388.483 302.49 392.342 303.22 398.93H260.33C262.26 396.571 261.38 393.462 262.12 391.262C265.73 380.575 271.08 370.157 273.8 359.04C275.56 351.872 277.33 338.555 278.07 331.407C278.45 327.718 277.46 325.699 280.34 321.66L278.28 320.67C279.29 319.16 280.71 317.201 281.06 315.431C284.47 298.335 286.1 280.94 289.71 264.284C290.11 262.454 292.34 260.255 292.79 258.345C293.3 256.206 292.16 251.017 292.6 249.028C293.41 245.399 296.81 239.33 297.24 234.841L295.34 233.032C299.58 226.123 298.04 217.726 302.14 210.817L300.22 208.978C301.04 207.698 302.47 205.859 302.8 204.459C305.2 194.401 306.77 183.624 308.75 173.437C309.29 170.657 313.11 167.388 313.79 164.579C316.84 152.002 322.08 142.794 326.95 130.867C327.85 128.668 327.17 126.878 327.92 125.039C329.55 121.07 332.12 117.011 334.15 113.202L332.14 112.242C334.27 108.243 336.99 103.934 338.66 99.7651C343.9 86.6684 346.53 70.9123 351.58 57.8656C353.17 53.7566 356.02 49.3477 358.09 45.3887L356.09 44.4589C356.51 42.3894 359.04 39.4302 359.47 37.9605C361.53 30.9523 362.43 20.8548 364.98 13.4967C366.35 9.54765 372.06 4.48891 370.05 0.0300293H392.99L393.02 0.0400268ZM348.13 181.545C345.42 180.955 346.43 182.354 345.67 183.524C343.97 186.103 341.16 194.521 340.6 197.461C340.38 198.65 341.91 199.33 341.7 200.54C341.42 202.129 339.03 205.329 338.16 206.998L340.17 207.958C339.14 209.268 338.17 211.097 337.82 212.707C334.84 226.373 333.58 239.18 330.44 252.117L329.69 262.314C333.28 259.655 332.15 256.116 332.77 253.277C336.36 236.801 339.15 220.455 342.81 203.739C343.16 202.119 344.13 200.31 345.16 198.99L343.21 197.101C346.9 194.101 345.09 190.792 345.69 188.423C346.24 186.263 348.74 184.344 348.14 181.565L348.13 181.545ZM322.45 219.245C321.51 218.085 324.6 214.506 324.97 212.727C326.06 207.578 326.7 201.81 327.33 196.181C327.57 194.052 328.11 191.892 329.14 190.003C328.99 187.973 324.25 189.393 323.23 190.063C322.77 190.362 317.75 198.92 317.63 199.45C317 202.06 318.03 207.328 316.76 211.517C315.78 214.786 312.62 217.606 312.27 219.995C311.85 222.864 313.8 228.413 314.21 231.402C308.66 230.712 311.3 235.231 310.9 237.751C310.37 241.03 309.04 243.439 309.48 247.618C309.57 248.448 310.97 249.348 310.99 249.878C311.03 250.757 308.56 251.757 308.5 252.847C308.47 253.357 310.06 254.196 309.81 255.386C309.47 256.986 306.91 258.825 306.41 261.085C305.97 263.084 307.11 265.174 306.25 267.733C305.64 269.563 303.74 270.952 303.63 271.752C303.49 272.802 304.55 274.371 304.31 275.601C304.21 276.091 299.7 279.78 299.44 283.949C299.2 287.678 299.81 285.899 298.72 291.237C297.19 298.725 298.42 308.053 296.82 315.201C296.46 316.801 294.1 318.92 294.4 320.53L301.24 325.659L298.16 329.648C302.73 336.856 298.13 336.936 296.75 341.145C296.14 343.004 297.5 344.334 297.34 345.444C297.28 345.844 292.67 348.193 293.81 352.122L290.29 352.082C291.88 355.981 289.48 358.061 288.78 361.07C288.4 362.689 289.41 364.969 288.39 366.388C287.56 367.548 285.09 366.818 284.46 368.628C283.83 370.437 286.84 384.234 288.33 386.513L285.22 389.543L288.78 395.941C289.44 395.941 295.09 386.024 295.53 384.664C302.9 361.5 301.21 345.534 304.55 322.799C305.68 315.121 308.68 308.603 310.01 301.495C310.42 299.285 309.9 293.217 310.38 291.007C310.77 289.248 312.91 287.518 312.89 286.768C312.87 286.118 311.32 285.199 311.39 283.949C311.47 282.569 313.49 280.65 313.88 278.65C314.55 275.161 313.59 266.813 314.44 263.084C314.83 261.355 317.41 259.795 317.26 257.856L315.21 256.876L320.21 247.858C315.66 246.728 320.66 243.649 320.91 240.78C321.06 239.06 319.71 237.311 320.34 235.131C320.74 233.762 322.76 232.962 322.88 231.922C322.92 231.582 320.9 227.793 321.44 225.174C321.81 223.354 323.14 221.455 324.19 219.925L322.44 219.255L322.45 219.245ZM326.32 285.139C329.36 281.57 328.1 279.05 328.48 275.911C328.73 273.862 332.03 271.742 328.19 270.292C325.31 275.541 326.3 280.79 323.19 285.799L325.19 286.728L321.19 293.757L323.24 294.736C319.74 307.513 318.35 319.55 316.99 332.407C316.75 334.636 315.75 338.405 315.52 340.715C315.22 343.804 316.61 346.423 313.21 349.593L315.27 350.572C312.84 354.351 314.31 357.831 313.23 362.03C318.38 361.9 315.55 356.841 315.68 356.021C318.75 336.386 321.5 315.461 325.71 295.206C326.32 292.287 325.5 288.718 328.19 285.699L326.33 285.129L326.32 285.139Z" fill="#E8FF6E"/>
<path d="M83.7897 0.0400391L80.7897 6.54841L82.8497 7.57815L81.7297 10.4674L83.7897 11.4872C80.7597 16.366 78.5397 25.7936 77.9597 31.6221C77.7697 33.5817 80.7697 34.3015 80.7897 36.4109C80.7997 37.9206 79.2197 39.2002 79.0797 40.5599C78.9397 41.9196 79.9497 43.3892 79.6397 45.1688C78.9097 49.3277 75.2297 48.5279 74.2597 49.8376C73.8997 50.3275 74.8797 52.367 74.3997 53.8766C73.6997 56.096 71.6597 58.0855 71.1597 60.5249C70.5197 63.7041 69.0297 77.8006 69.0797 81.0698C69.1097 82.8793 70.5197 84.6889 70.2997 86.9483C70.0097 89.8776 67.0097 92.367 66.9097 94.2465C66.7597 97.0358 70.2197 100.005 69.9097 102.155C69.7997 102.904 66.8997 103.244 66.2497 105.704C65.6697 107.883 65.6897 114.621 65.1697 117.531C64.8997 119.04 63.3597 120.21 63.0197 122.19C62.9497 122.589 62.8097 128.738 62.9097 129.068C63.3697 130.527 65.8897 130.407 65.8997 131.227L58.7797 145.084L61.8697 148.073C58.7897 151.622 60.2297 155.881 59.4497 158.61C58.8097 160.87 55.7197 163.049 55.3897 166.438C55.1497 168.888 56.8297 171.097 56.7497 173.107C56.7297 173.547 55.5897 180.765 55.4097 181.565C54.7997 184.394 50.8497 188.063 49.9597 191.152L51.8797 192.982C48.8797 195.291 50.9397 198.121 50.4297 200.51C49.7297 203.739 45.2897 208.458 46.9697 213.817C47.3497 215.016 49.2397 214.946 49.8497 216.236C50.4597 217.526 50.5897 225.014 50.2997 226.533C49.4197 231.072 41.8997 231.982 40.3597 239.36C39.3297 244.279 38.5597 249.208 37.4797 254.306C35.6797 262.804 33.3897 271.412 31.4797 280.29C31.0597 282.269 28.4097 284.829 28.2197 286.878C27.9997 289.228 30.0597 291.527 29.4797 294.246C28.9597 296.716 25.5497 300.125 25.1197 301.965C24.4497 304.844 24.4297 313.022 23.5497 316.171C21.7897 322.429 18.9597 321.6 17.9497 330.577C17.7597 332.227 14.8697 340.275 14.9297 341.585L16.9797 342.564C14.7497 345.534 11.8397 351.522 13.6097 355.081C14.9397 357.751 19.4397 358.161 19.4797 362.05C24.6197 360.67 22.6197 355.271 23.1797 352.812C23.8597 349.803 27.1697 343.874 28.6297 338.305C30.2997 331.977 34.5897 320.37 35.4797 315.211C35.6897 314.012 34.1897 313.342 34.3897 312.142C34.6897 310.342 37.5397 307.713 37.5497 306.683C37.5497 306.084 36.1797 305.354 36.3697 304.164C36.6797 302.255 39.9497 297.826 40.9197 295.706L38.9997 293.877C43.8397 287.778 42.5197 280.69 46.8997 274.771L44.8897 273.812C46.3297 271.492 47.8797 268.263 48.5197 265.644C49.9697 259.725 48.1897 250.577 51.8897 244.849L49.8297 243.869C52.2797 240.98 50.6797 238.26 51.0897 236.131C51.7497 232.752 56.1297 223.884 57.3897 219.455C62.6497 200.96 63.8997 182.484 68.8297 163.059L66.8297 162.15C71.3897 156.211 67.4797 149.243 70.8697 143.164L68.8097 142.184C70.0097 139.425 73.0697 135.806 73.8997 133.187C75.6297 127.728 78.5097 108.443 78.3097 103.254C78.2097 100.515 74.9997 96.366 78.7997 93.2767L76.7397 92.287C79.5197 88.5579 78.6697 85.5887 79.4197 82.0495C80.7197 75.9211 83.1097 70.1825 83.4797 64.264C83.7297 60.285 81.8997 55.0163 84.7797 51.3672L82.7297 50.4074C83.0197 45.8786 86.4697 39.6101 87.2297 36.071C89.4797 25.4737 93.8797 15.0563 94.2297 4.55891C94.2797 2.90932 95.1597 1.51967 95.7497 0.0500366H106.72C108.03 1.65963 106.81 2.80935 106.43 4.21899C104.83 10.1475 103.53 16.5559 102.29 22.8543C101.66 26.0435 101.63 31.9621 101.27 33.9916C101 35.5712 98.5997 38.7704 97.7397 40.4399L100.23 40.9498C103.6 37.5307 102.6 32.7019 103.62 29.4627C106.27 21.0748 108.06 15.3062 108.11 6.53841C108.12 4.80885 111.07 2.62939 108.7 0.0400391H147.6L144.79 10.7874C145.57 17.1358 141.59 24.134 140.1 29.9426C139.44 32.5119 140.41 36.6209 137.63 39.4702L139.63 40.3999C138.76 42.0695 136.36 45.2687 136.09 46.8583C133.95 59.4152 134.24 74.4814 131.24 86.7784C128.95 96.176 129.25 102.634 128.32 112.072C126.88 126.568 122.07 139.875 119.89 154.331C119.53 156.711 121.06 159.07 118.63 162.07L120.68 163.049C117.15 165.969 118.81 169.418 118.36 171.917C116.51 182.175 114.9 192.992 113.05 203.119C112.55 205.829 113.25 209.118 110.7 211.987L112.7 212.897C109.63 218.575 109.48 224.984 108.03 231.132C107.05 235.281 104.84 240.26 104.11 244.349C103.61 247.138 104.57 249.888 102.64 252.787L104.72 253.817C103.38 255.016 102.54 256.576 102.13 258.305C98.9097 271.932 97.3497 284.509 94.1797 297.306C88.6597 319.55 83.4097 342.484 77.0097 364.739C75.8797 368.678 76.2797 373.717 72.7897 377.496L74.7997 378.455C73.9397 380.115 71.5097 383.354 71.2497 384.914C71.1997 385.214 71.2497 388.853 71.1197 390.562C70.9397 393.022 71.6597 396.131 70.7997 398.91H30.3997C26.9597 398.91 30.4397 392.222 30.5897 391.292C31.0097 388.613 29.4097 385.414 32.9097 382.434L30.9697 380.555C31.9597 378.275 34.4497 376.006 35.1397 373.697C43.6197 345.594 48.3097 318.24 56.2797 290.237C56.8497 288.238 58.7897 286.258 59.3597 284.229C60.0397 281.8 59.0497 277.471 61.8297 274.701L59.8297 273.772C63.3597 270.892 61.6897 267.343 62.1497 264.914C64.1497 254.446 65.5697 244.209 67.2697 234.321C67.5897 232.482 70.3297 229.233 71.0397 227.093C74.1897 217.576 73.7697 207.668 76.0397 198.23C76.3997 196.731 78.1797 194.581 78.7997 192.942L76.7897 192.002C80.0897 189.033 78.5997 184.804 79.4197 181.735C79.7997 180.325 84.3197 174.816 79.2797 176.506C76.6897 177.376 77.6997 183.804 77.4697 184.864C77.0697 186.723 75.5497 188.043 75.2297 189.463C74.6197 192.212 76.4397 195.961 72.7897 198.98C77.0397 200.08 73.0297 202.609 72.2697 205.429C69.2597 216.596 67.2597 228.593 64.6497 239.58C61.1197 254.466 58.0397 271.602 54.5897 287.458C53.7497 291.307 53.8097 292.787 53.3897 295.236C53.0597 297.176 50.2397 301.005 48.8797 302.714L50.8597 304.654L45.8497 313.672C50.2297 314.801 45.8997 317.421 45.2997 320.1C39.9797 344.064 31.1097 368.568 27.5897 392.302C27.2697 394.461 25.1497 395.861 26.8997 398.91C23.8397 398.121 12.1397 401.26 13.3997 395.851C14.2997 391.992 13.1597 391.862 13.3697 390.882C13.6197 389.673 15.4497 388.713 14.9297 386.953C11.4797 387.523 9.34972 386.573 6.47972 384.944C5.00972 385.234 4.72973 389.913 4.18973 391.672C3.92973 392.502 2.67973 393.262 2.45973 393.952C2.18973 394.791 5.61973 399.34 0.969727 398.92V348.563C0.969727 347.863 3.37973 345.864 3.65973 344.414C9.94973 311.062 18.5097 279.56 27.3797 246.328C27.8097 244.729 29.2097 243.299 29.8197 241.72L27.8997 239.88C30.9797 236.111 28.1797 231.082 31.8997 226.843L29.8997 225.914C30.9297 224.594 31.8897 222.784 32.2497 221.165C34.6197 210.447 40.5197 198.65 42.4297 188.533C42.6497 187.343 41.1297 186.663 41.3297 185.454C41.6397 183.624 44.1897 181.065 44.6497 178.785C45.1097 176.506 43.2597 173.497 46.3897 170.477C47.6997 169.208 49.1297 170.437 49.8897 169.988C51.0597 169.298 53.3697 164.879 50.3697 165.579C47.7597 166.189 48.0797 169.928 45.8497 168.038C45.8897 165.739 48.0697 163.749 48.5297 161.9C49.7997 156.701 47.8397 149.573 52.6797 144.854L52.9197 133.297L57.8397 130.148L53.8497 127.148L55.7897 123.149L58.8297 123.679C60.0197 121.2 56.0997 119.11 56.0697 118.22C56.0597 117.751 58.3897 115.231 58.5297 113.072C58.6697 110.912 57.1697 108.473 56.9897 106.104C56.6497 101.555 58.4497 89.7776 59.7397 85.2887C60.4397 82.8393 63.5297 78.7304 63.6697 77.1208C63.8297 75.2312 61.1897 74.4614 60.9597 73.1818C60.8697 72.6919 62.4797 65.3537 62.6097 64.134C63.5697 55.0463 64.9297 45.4987 66.9597 36.4009C67.8597 32.382 70.7397 26.0335 71.3597 22.9943C71.7097 21.2847 70.5897 19.6751 70.8697 18.5954C71.3297 16.8158 75.7197 17.6356 75.6097 14.3165L72.9497 10.3675L75.8497 3.53916C72.8297 2.55941 74.3197 2.31947 74.7997 0.0400391H83.7797L83.7897 0.0400391ZM101.74 41.9296C95.7197 43.3292 97.4197 52.347 96.5097 57.1258C93.3897 73.3917 91.2997 88.9478 89.4397 106.104C87.2397 126.338 82.9197 147.413 79.4397 166.818C78.8997 169.838 79.5297 172.317 77.8097 175.546C83.1497 176.446 81.7697 169.468 82.1097 167.208C85.4397 144.514 91.2697 123.349 93.2897 99.8451C94.6897 83.5492 97.1897 66.9933 100.11 50.6474C100.65 47.6281 100.02 45.1488 101.74 41.9196V41.9296Z" fill="#E8FF6E"/>
<path d="M95.7601 0.0400268C95.1701 1.50966 94.2901 2.89931 94.2401 4.5489C93.8901 15.0463 89.5001 25.4637 87.2401 36.061C86.4901 39.6001 83.0301 45.8686 82.7401 50.3974L84.7901 51.3572C81.9001 55.0063 83.7401 60.275 83.4901 64.254C83.1201 70.1725 80.7401 75.9111 79.4301 82.0395C78.6801 85.5686 79.5301 88.5479 76.7501 92.277L78.8101 93.2667C75.0101 96.3559 78.2201 100.505 78.3201 103.244C78.5101 108.443 75.6401 127.728 73.9101 133.177C73.0801 135.796 70.0201 139.415 68.8201 142.174L70.8801 143.154C67.4901 149.233 71.4001 156.201 66.8401 162.139L68.8401 163.049C63.9001 182.474 62.6601 200.95 57.4001 219.445C56.1401 223.874 51.7601 232.742 51.1001 236.121C50.6801 238.25 52.2901 240.98 49.8401 243.859L51.9001 244.839C48.2001 250.577 49.9801 259.715 48.5301 265.634C47.8901 268.243 46.3401 271.482 44.9001 273.802L46.9101 274.761C42.5301 280.69 43.8501 287.778 39.0101 293.867L40.9301 295.696C39.9501 297.816 36.6901 302.244 36.3801 304.154C36.1901 305.344 37.5601 306.074 37.5601 306.673C37.5501 307.703 34.7001 310.332 34.4001 312.132C34.2001 313.332 35.6901 314.002 35.4901 315.201C34.6001 320.37 30.3101 331.967 28.6401 338.295C27.1801 343.864 23.8701 349.783 23.1901 352.802C22.6401 355.261 24.6401 360.66 19.4901 362.04C19.4501 358.16 14.9501 357.741 13.6201 355.071C11.8501 351.512 14.7601 345.524 16.9901 342.554L14.9401 341.575C14.8901 340.265 17.7801 332.217 17.9601 330.567C18.9701 321.59 21.8001 322.419 23.5601 316.161C24.4401 313.012 24.4601 304.834 25.1301 301.955C25.5601 300.105 28.9701 296.706 29.4901 294.236C30.0601 291.507 28.0001 289.218 28.2301 286.868C28.4201 284.819 31.0701 282.259 31.4901 280.28C33.4001 271.402 35.7001 262.784 37.4901 254.296C38.5701 249.198 39.3401 244.269 40.3701 239.35C41.9101 231.972 49.4301 231.062 50.3101 226.523C50.6001 225.004 50.4701 217.516 49.8601 216.226C49.2501 214.936 47.3601 215.006 46.9801 213.807C45.3001 208.448 49.7401 203.729 50.4401 200.5C50.9501 198.11 48.8901 195.281 51.8901 192.972L49.9701 191.142C50.8601 188.043 54.8101 184.384 55.4201 181.555C55.5901 180.755 56.7401 173.537 56.7601 173.097C56.8401 171.087 55.1501 168.868 55.4001 166.428C55.7401 163.039 58.8201 160.87 59.4601 158.6C60.2401 155.861 58.8001 151.612 61.8801 148.063L58.7901 145.074L65.9101 131.217C65.9001 130.397 63.3801 130.517 62.9201 129.058C62.8201 128.728 62.9601 122.579 63.0301 122.179C63.3801 120.2 64.9201 119.03 65.1801 117.521C65.7001 114.611 65.6801 107.873 66.2601 105.694C66.9101 103.234 69.8101 102.894 69.9201 102.144C70.2201 99.995 66.7701 97.0258 66.9201 94.2365C67.0201 92.3569 70.0201 89.8676 70.3101 86.9383C70.5301 84.6789 69.1201 82.8693 69.0901 81.0598C69.0401 77.7906 70.5301 63.6941 71.1701 60.5149C71.6601 58.0755 73.7001 56.086 74.4101 53.8666C74.8901 52.3569 73.9101 50.3275 74.2701 49.8276C75.2401 48.5179 78.9201 49.3177 79.6501 45.1587C79.9601 43.3792 78.9501 41.8796 79.0901 40.5499C79.2301 39.2202 80.8201 37.9106 80.8001 36.4009C80.7801 34.2915 77.7801 33.5716 77.9701 31.6121C78.5501 25.7836 80.7701 16.3559 83.8001 11.4772L81.7401 10.4574L82.8601 7.56814L80.8001 6.5384L83.8001 0.0300293H95.7701L95.7601 0.0400268Z" fill="#E8FF6E"/>
<path d="M400 46.9082C398.68 47.8379 398 49.5775 397.7 51.0971C396.83 55.496 395.03 64.0139 393.54 67.8529C391.95 71.9619 389.1 76.3708 387.02 80.3298L389.02 81.2996C387.35 84.3388 383.18 89.7075 382.45 92.7867C380.85 99.525 379 106.763 376.29 113.372C374.66 117.341 372.09 121.4 370.06 125.209L372.07 126.168C367.64 135.296 359.22 144.454 358.66 154.581C352.69 162.209 353.35 171.557 347.96 178.885C347.28 179.805 346.23 181.704 345.12 180.035C345.6 176.906 349.05 173.327 349.71 170.567C351.21 164.289 353.31 156.841 355.54 150.652C356.96 146.703 359.93 142.704 362.03 139.065L360.09 137.186C363.24 131.937 366.49 126.628 368.99 121.03C372.39 113.412 375.11 103.884 377.78 96.0959C379.02 92.4768 382.11 88.5977 383.97 85.2086L382.03 83.3291C383.69 80.2598 386.04 76.6807 387.27 73.4815C389.73 67.0831 391.58 60.0449 393.21 53.6665C393.7 51.727 397.19 48.6077 397.07 46.4183L395 45.4285L400 36.9307V46.9082Z" fill="#E8FF6E"/>
<path d="M108.73 0.0400391C111.1 2.62939 108.15 4.80885 108.14 6.53841C108.09 15.3062 106.3 21.0748 103.65 29.4627C102.63 32.7019 103.63 37.5307 100.26 40.9498L97.7695 40.4399C98.6295 38.7704 101.03 35.5712 101.3 33.9916C101.65 31.9621 101.69 26.0435 102.32 22.8543C103.56 16.5559 104.86 10.1375 106.46 4.21899C106.84 2.79935 108.05 1.65963 106.75 0.0500366H108.75L108.73 0.0400391Z" fill="#E8FF6E"/>
<path d="M399.01 0.0400391C396.79 3.62914 395.87 8.79785 392.04 11.0073L393.03 0.0400391H399.02H399.01Z" fill="#E8FF6E"/>
<path d="M150.63 26.9734C155.78 24.654 157.41 25.7737 161.54 29.4328C160.65 32.9619 153.98 35.5213 152.15 31.8922C151.59 30.7924 152.52 28.433 150.63 26.9734Z" fill="#E8FF6E"/>
<path d="M203.45 64.9738C203.67 65.2638 202.87 66.6234 203.04 67.3033C204.56 73.3817 202.89 70.5724 201.94 74.8114C199.45 85.8886 202.83 98.9553 199.26 109.983C197.89 114.212 193.45 121.75 190.8 125.439C190.3 126.139 190.98 127.128 189.05 126.688L183.47 122.07L180.78 111.422C181.02 108.533 186.15 103.464 187.06 100.685C187.72 98.6454 186.57 97.3457 186.97 95.7362C187.52 93.5267 191.52 86.7984 194.53 88.7879L193.24 85.1088L198.51 81.2998L192.99 76.8609L192.56 74.8814C196.32 74.5614 194.53 71.9821 195.73 69.6527C196.93 67.3233 200.7 61.2748 203.46 64.9638L203.45 64.9738Z" fill="#E8FF6E"/>
<path d="M180.8 286.069L182.55 286.738C179.03 289.678 180.67 293.057 180.23 295.606C177.98 308.583 169.15 318.26 166 331.147C165.53 333.087 166.51 334.526 166.15 336.146C165.53 338.935 163.14 341.275 163.8 345.614C163.84 345.884 166.98 346.973 165.6 350.083L168.07 348.063L170.48 349.163L169.94 355.811L165.14 358.011C162.77 355.241 166.14 352.332 159.62 353.512C156.22 357.741 154.12 363.549 150.85 367.748C149.9 368.968 149.69 370.457 147.64 370.008C146.92 369.248 153.02 358.67 153.83 356.741C158.73 345.114 160.9 336.516 163.84 324.899C164.92 320.64 169.76 314.931 171.59 310.652L169.59 309.683L177.58 295.686L175.53 294.706C178.34 290.247 175.46 285.839 179.58 281.73L177.52 280.74C181.31 274.871 178.65 268.583 184.08 263.304C190.34 266.783 182.86 273.532 181.99 277.271C181.4 279.79 182.58 282.899 180.83 286.049L180.8 286.069Z" fill="#E8FF6E"/>
<path d="M192.53 162.589C191.66 159.89 194.24 158.011 194.48 156.061C194.65 154.691 193.51 153.262 193.93 151.582C194.41 149.693 197.67 146.933 198.05 144.684C198.25 143.484 196.76 142.804 196.96 141.605C197.53 138.246 205.23 128.478 206.49 124.169L204.48 123.209C205.67 120.31 209.39 116.471 210.06 113.712C210.81 110.642 208.84 106.743 212.97 103.764L213.16 112.082C209.31 126.179 203.27 140.755 197.97 154.541C197.2 156.541 194.34 161.12 192.53 162.589Z" fill="#E8FF6E"/>
<path d="M216.46 20.9848C215.08 24.094 218.16 25.1438 218.24 25.4637C219.65 30.9323 218.48 41.9996 221.51 45.4287C219.02 50.0476 221.86 55.7561 218.94 60.8449C220.12 61.9646 218.91 72.5719 217.96 72.8519L215.47 72.8319C216.88 70.7524 215.56 68.7829 215.91 66.8334C216.39 64.194 218.54 58.8154 218.29 55.6362C217.85 50.2575 214.15 37.1508 212.72 31.1723C212.25 29.2428 214.77 28.303 211.43 27.4432C211.34 26.2435 215.1 19.2253 216.47 20.9848H216.46Z" fill="#E8FF6E"/>
<path d="M173.55 229.413C170.23 227.703 167.37 225.874 163.6 227.423C161.48 219.775 165.39 217.246 171.22 213.537C176.99 216.506 177.14 224.504 173.55 229.413Z" fill="#E8FF6E"/>
<path d="M165.31 288.528C167.64 291.997 164.35 298.355 162.42 301.535C161.85 302.484 159.24 306.763 158.12 306.194L153.77 294.916C157.32 292.277 159.6 290.677 162.09 286.298C162.72 287.388 164.84 287.838 165.31 288.528Z" fill="#E8FF6E"/>
<path d="M165.38 233.162L166.06 231.402L170.58 233.432L169.51 236.851L171.55 237.421C169.43 242.639 164.24 245.689 160.5 239.93C158.67 237.111 162.59 233.222 156.61 232.392L158.89 230.592L165.38 233.162Z" fill="#E8FF6E"/>
<path d="M167.22 256.416L170.44 259.045C171.12 263.864 163.89 268.243 160.54 264.814C159.58 263.834 160.9 260.845 158.63 259.825L160.68 258.755L163.11 260.115L167.23 256.426L167.22 256.416Z" fill="#E8FF6E"/>
<path d="M188.53 195.511C188.8 197.961 190.14 210.447 187.04 210.427L183.63 208.318C184.99 203.979 182.2 196.971 188.52 195.501L188.53 195.511Z" fill="#E8FF6E"/>
<path d="M186.76 244.129C187 244.479 188.71 244.249 188.54 244.849C184.63 247.938 190.03 255.396 183.54 254.336C184.87 250.087 179.43 242.869 186.02 240.39C188.2 241.45 186.22 243.379 186.75 244.139L186.76 244.129Z" fill="#E8FF6E"/>
<path d="M172.76 205.299L174.57 205.968L171.59 207.468C172.34 205.109 165.72 199.73 170.09 198.5C175.56 196.961 172.45 204.969 172.76 205.299Z" fill="#E8FF6E"/>
<path d="M322.45 219.245L324.2 219.915C323.14 221.445 321.82 223.344 321.45 225.164C320.91 227.783 322.93 231.572 322.89 231.912C322.77 232.952 320.75 233.742 320.35 235.121C319.72 237.291 321.08 239.04 320.92 240.77C320.66 243.649 315.66 246.718 320.22 247.848L315.22 256.866L317.27 257.846C317.42 259.785 314.84 261.345 314.45 263.074C313.6 266.803 314.57 275.151 313.89 278.64C313.5 280.65 311.48 282.569 311.4 283.939C311.33 285.189 312.88 286.108 312.9 286.758C312.92 287.508 310.78 289.238 310.39 290.997C309.91 293.207 310.43 299.275 310.02 301.485C308.69 308.593 305.69 315.111 304.56 322.789C301.22 345.524 302.9 361.49 295.54 384.654C295.11 386.013 289.45 395.931 288.79 395.931L285.23 389.533L288.34 386.503C286.85 384.224 283.85 370.397 284.47 368.618C285.09 366.838 287.56 367.528 288.4 366.378C289.42 364.959 288.4 362.679 288.79 361.06C289.49 358.05 291.89 355.971 290.3 352.072L293.82 352.112C292.68 348.193 297.29 345.844 297.35 345.434C297.51 344.334 296.15 343.004 296.76 341.135C298.14 336.926 302.75 336.846 298.17 329.638L301.25 325.649L294.41 320.52C294.11 318.91 296.47 316.791 296.83 315.191C298.43 308.043 297.2 298.715 298.73 291.227C299.83 285.879 299.22 287.668 299.45 283.939C299.72 279.76 304.23 276.081 304.32 275.591C304.56 274.361 303.49 272.792 303.64 271.742C303.75 270.942 305.65 269.553 306.26 267.723C307.12 265.164 305.98 263.074 306.42 261.075C306.92 258.815 309.47 256.976 309.82 255.376C310.08 254.186 308.48 253.347 308.51 252.837C308.57 251.747 311.04 250.747 311 249.868C310.98 249.338 309.58 248.438 309.49 247.608C309.05 243.429 310.38 241.02 310.91 237.741C311.32 235.221 308.68 230.702 314.22 231.392C313.8 228.413 311.86 222.854 312.28 219.985C312.63 217.596 315.79 214.776 316.77 211.507C318.03 207.318 317 202.049 317.64 199.44C317.77 198.91 322.79 190.352 323.24 190.052C324.26 189.383 329 187.973 329.15 189.992C328.11 191.882 327.58 194.041 327.34 196.171C326.7 201.8 326.06 207.568 324.98 212.717C324.6 214.496 321.52 218.075 322.46 219.235L322.45 219.245Z" fill="#E8FF6E"/>
<path d="M348.13 181.544C348.73 184.314 346.22 186.243 345.68 188.403C345.08 190.772 346.89 194.081 343.2 197.081L345.15 198.97C344.12 200.29 343.15 202.099 342.8 203.719C339.15 220.435 336.35 236.781 332.76 253.257C332.14 256.106 333.26 259.635 329.68 262.294L330.43 252.097C333.57 239.16 334.83 226.353 337.81 212.687C338.16 211.077 339.13 209.248 340.16 207.938L338.15 206.978C339.02 205.309 341.42 202.109 341.69 200.52C341.9 199.31 340.37 198.63 340.59 197.441C341.14 194.511 343.96 186.093 345.66 183.504C346.43 182.334 345.42 180.935 348.12 181.524L348.13 181.544Z" fill="#E8FF6E"/>
<path d="M326.32 285.139L328.18 285.709C325.49 288.728 326.3 292.297 325.7 295.216C321.49 315.461 318.75 336.396 315.67 356.031C315.54 356.851 318.38 361.91 313.22 362.04C314.3 357.841 312.83 354.361 315.26 350.582L313.2 349.603C316.61 346.433 315.21 343.814 315.51 340.725C315.74 338.415 316.74 334.636 316.98 332.417C318.34 319.55 319.73 307.523 323.23 294.746L321.18 293.767L325.18 286.738L323.18 285.809C326.29 280.81 325.3 275.551 328.18 270.302C332.02 271.752 328.72 273.872 328.47 275.921C328.09 279.06 329.35 281.58 326.31 285.149L326.32 285.139Z" fill="#E8FF6E"/>
<path d="M101.74 41.9294C100.02 45.1586 100.65 47.638 100.11 50.6573C97.1896 66.9932 94.6796 83.549 93.2896 99.855C91.2696 123.359 85.4396 144.524 82.1096 167.218C81.7796 169.488 83.1596 176.456 77.8096 175.556C79.5296 172.327 78.8996 169.837 79.4396 166.828C82.9096 147.423 87.2396 126.348 89.4396 106.113C91.2996 88.9577 93.3896 73.4016 96.5096 57.1356C97.4296 52.3568 95.7196 43.3391 101.74 41.9394V41.9294Z" fill="#E8FF6E"/>
</svg>
